# xmcd
#
# Track frame offsets:
#	150
#	13979
#	30834
#	47129
#	64869
#	81345
#	94231
#	109283
#	122584
#	136286
#	150048
#	162443
#	179315
#	193656
#	210680
#	223658
#	237431
#	251650
#	266105
#	282164
#
# Disc length: 3969 seconds
#
# Revision: 2
# Processed by: cddbd v1.5.2PL0 Copyright (c) Steve Scherf et al.
# Submitted via: audiograbber 1.83.01
#
DISCID=210f7f14
DTITLE=John Williamson - From Bulldust To Bitumen - 20 Queensland Songs
DYEAR=2005
DGENRE=Country
TTITLE0=Humpin' My Bluey
TTITLE1=Springbrook
TTITLE2=Mountain Hideaway
TTITLE3=No One Loves Brisbane Like Jesus (Live)
TTITLE4=Queensland Bungalow
TTITLE5=Charters Towers
TTITLE6=Papa Whisky November
TTITLE7=Granny's Little Gunyah
TTITLE8=Frangipani Bay
TTITLE9=Cape York Peninsula
TTITLE10=Crocodile Roll
TTITLE11=Old Farts In Caravan Parks (Live)
TTITLE12=Three Rivers Hotel
TTITLE13=Sing You The Outback
TTITLE14=Back At The Isa
TTITLE15=Diamantina Drover
TTITLE16=Waltzing Matilda Qld. Version (Live)
TTITLE17=Longreach Is Praying
TTITLE18=Thargomindah (The Way It Is)
TTITLE19=Show Me A Better Way
EXTD=Celebrate the journey, RACQ 1905-2005
EXTT0=
EXTT1=
EXTT2=
EXTT3=
EXTT4=
EXTT5=
EXTT6=
EXTT7=
EXTT8=
EXTT9=
EXTT10=Tony Dennett - John Williamson 1987
EXTT11=
EXTT12=Stan Coster 1991
EXTT13=
EXTT14=
EXTT15=Hugh McDonald 1982
EXTT16=Words and music A. B. Paterson - M. Cowan.\nArranged by John Williamson 19
EXTT16=84
EXTT17=
EXTT18=
EXTT19=
PLAYORDER=
